<?xml version="1.0" standalone="no"?>
<!DOCTYPE svg PUBLIC "-//W3C//DTD SVG 20010904//EN"
 "http://www.w3.org/TR/2001/REC-SVG-20010904/DTD/svg10.dtd">
<svg version="1.0" xmlns="http://www.w3.org/2000/svg"
 width="16.000000pt" height="16.000000pt" viewBox="0 0 16.000000 16.000000"
 preserveAspectRatio="xMidYMid meet">

<g transform="translate(0.000000,16.000000) scale(0.100000,-0.100000)"
fill="#000000" stroke="none">
<path d="M123 90 c-3 -19 -9 -27 -13 -20 -10 15 -21 15 -31 -2 -7 -10 -9 -10
-9 2 0 13 -1 13 -10 0 -8 -12 -10 -9 -10 13 0 15 -5 27 -11 27 -6 0 -8 -7 -5
-16 3 -9 6 -22 6 -29 0 -9 14 -13 45 -13 28 0 45 4 45 11 0 8 3 7 9 -2 5 -8
11 -9 15 -3 3 5 -1 15 -10 22 -11 10 -12 15 -3 20 8 6 8 9 0 14 -7 5 -14 -4
-18 -24z"/>
<path d="M17 83 c-4 -3 -7 -13 -7 -22 1 -13 3 -13 11 2 11 19 8 33 -4 20z"/>
</g>
</svg>
